<svg xmlns="http://www.w3.org/2000/svg" viewBox="0 0 512 512" style="enable-background:new 0 0 512 512" xml:space="preserve"><style>.st1,.st6,.st7,.st8{fill:none;stroke:#000;stroke-width:20;stroke-linecap:round;stroke-linejoin:round;stroke-miterlimit:10}.st6,.st7,.st8{fill:#d4f4ff}.st7,.st8{fill:#f2df98}.st8{fill:#fff}</style><g id="ICON_1_"><path class="st8" d="M502 183.9h0c0-15-4.3-29.7-12.5-42.2l-2.7-4.2h-54.1l-2.7 4.2c-8.2 12.6-12.5 27.3-12.5 42.2v0"/><path d="M459.7 190.8c-5.6-7.5-14.6-12.3-24.7-12.3-6.5 0-12.6 2-17.6 5.5v225.9h42.3" style="fill:#e4b75c"/><path class="st1" d="M417.4 409.8h42.3M459.7 190.8c-5.6-7.5-14.6-12.3-24.7-12.3-6.5 0-12.6 2-17.6 5.5v192.5"/><path class="st7" d="M459.7 232.2v177.7H502v-226c-5-3.5-11.1-5.5-17.6-5.5-10.1 0-19.1 4.8-24.7 12.3"/><path style="fill:#7585f0;stroke:#000;stroke-width:20;stroke-linecap:round;stroke-linejoin:round;stroke-miterlimit:10" d="M432.6 137.5h54.1l-27-41.7z"/><path d="M417.4 478c0 13.3 10.7 24 24 24H478c13.3 0 24-10.7 24-24v-29.1h-84.6V478z" style="fill:#de5a5a;stroke:#000;stroke-width:20;stroke-linecap:round;stroke-linejoin:round;stroke-miterlimit:10"/><path class="st8" d="M417.4 409.8H502v39.1h-84.6z"/><path d="M10 144.8v-43.4C10 79.1 28.1 61 50.4 61H337c22.3 0 40.4 18.1 40.4 40.4v360.2c0 22.3-18.1 40.4-40.4 40.4H50.4C28.1 502 10 483.9 10 461.6V213.8" style="fill:#7585f0"/><path class="st1" d="M297.7 61H337c22.3 0 40.4 18.1 40.4 40.4v360.2c0 22.3-18.1 40.4-40.4 40.4H50.4C28.1 502 10 483.9 10 461.6V213.8M10 144.8v-43.4C10 79.1 28.1 61 50.4 61h40.8"/><g><path d="M337.4 320V116.9c0-8.7-7.1-15.9-15.9-15.9H65.9c-8.8 0-15.9 7.1-15.9 15.9v329.3c0 8.8 7.1 15.9 15.9 15.9h208.5l63.1-63.1" style="fill:#fff"/><path class="st1" d="M91.2 101H65.9c-8.8 0-15.9 7.1-15.9 15.9v329.3c0 8.8 7.1 15.9 15.9 15.9h208.5l63.1-63.1M337.4 320V116.9c0-8.7-7.1-15.9-15.9-15.9h-23.9"/><path class="st6" d="M274.3 462h47.2c8.8 0 15.9-7.1 15.9-15.9v-47.2L274.3 462z"/><path class="st6" d="M337.4 398.9h-47.2c-8.8 0-15.9 7.1-15.9 15.9V462l63.1-63.1z"/></g><g><path class="st6" d="M136 206.8h-33.9c-6.7 0-12.2-5.5-12.2-12.2v-33.9c0-6.7 5.5-12.2 12.2-12.2H136c6.7 0 12.2 5.5 12.2 12.2v33.9c0 6.8-5.5 12.2-12.2 12.2z"/><path class="st1" d="M200.4 155.9h85.9M200.4 190.6h52.3"/><g><path class="st7" d="M136 306.6h-33.9c-6.7 0-12.2-5.5-12.2-12.2v-33.9c0-6.7 5.5-12.2 12.2-12.2H136c6.7 0 12.2 5.5 12.2 12.2v33.9c0 6.7-5.5 12.2-12.2 12.2z"/><path class="st1" d="M200.4 255.6h85.9M200.4 290.3h52.3"/></g><g><path d="M136 406.3h-33.9c-6.7 0-12.2-5.5-12.2-12.2v-33.9c0-6.7 5.5-12.2 12.2-12.2H136c6.7 0 12.2 5.5 12.2 12.2v33.9c0 6.8-5.5 12.2-12.2 12.2z" style="fill:#87bf8c;stroke:#000;stroke-width:20;stroke-linecap:round;stroke-linejoin:round;stroke-miterlimit:10"/><path class="st1" d="M200.4 355.4h85.9M200.4 390.1h52.3"/></g></g><g><path d="M238.2 61c.5-2.2.6-5.4.5-8.6-1.3-23-20.2-41.5-43.2-42.3-25.6-1-46.7 19.5-46.7 45 0 2.4.2 4.7.5 6" style="fill:#e4b75c;stroke:#000;stroke-width:20;stroke-linecap:round;stroke-linejoin:round;stroke-miterlimit:10"/><path class="st7" d="M183.2 61h-92v30.9c0 13.8 11.2 25 25 25h154.9c13.8 0 25-11.2 25-25V61h-58"/></g></g></svg>